<svg width="38" height="38" viewBox="0 0 38 38" fill="none" xmlns="http://www.w3.org/2000/svg">
<g clip-path="url(#clip0_545:614)">
<path d="M19.027 0.330078C8.7416 0.330078 0.373779 8.6979 0.373779 18.9833C0.373779 29.2687 8.7416 37.6365 19.027 37.6365C29.3124 37.6365 37.6802 29.2687 37.6802 18.9833C37.6802 8.6979 29.3124 0.330078 19.027 0.330078ZM19.027 34.245C10.6116 34.245 3.76527 27.3986 3.76527 18.9833C3.76527 10.568 10.6116 3.72157 19.027 3.72157C27.4424 3.72157 34.2887 10.568 34.2887 18.9833C34.2887 27.3986 27.4423 34.245 19.027 34.245Z" fill="#FA8B17" fill-opacity="0.89"/>
<path d="M26.0215 12.3882L16.4288 21.9808L12.0323 17.5842C11.3701 16.9221 10.2964 16.922 9.63414 17.5841C8.97189 18.2464 8.97189 19.32 9.63414 19.9822L15.2296 25.578C15.5477 25.896 15.9789 26.0747 16.4286 26.0747C16.4288 26.0747 16.4287 26.0747 16.4288 26.0747C16.8785 26.0747 17.3098 25.896 17.6278 25.5781L28.4196 14.7865C29.0819 14.1242 29.0819 13.0506 28.4196 12.3883C27.7574 11.7261 26.6837 11.726 26.0215 12.3882Z" fill="#FA8B17" fill-opacity="0.89"/>
</g>
<defs>
<clipPath id="clip0_545:614">
<rect width="37.3064" height="37.3064" fill="white" transform="translate(0.373779 0.330078)"/>
</clipPath>
</defs>
</svg>
